<?xml version="1.0" encoding="UTF-8"?>
<svg width="128px" height="128px" viewBox="0 0 512 512" version="1.1"
     xmlns="http://www.w3.org/2000/svg" xmlns:xlink="http://www.w3.org/1999/xlink">
    <title>PiView</title>
    <defs>
        <rect id="path-1" x="0" y="0" width="390" height="390"></rect>
    </defs>
    <g id="PiView" stroke="none" stroke-width="1" fill="none" fill-rule="evenodd">
        <g id="Group-3" transform="translate(-48.603652, -66.603652)">
            <g id="Raspberry_Pi_Logo" transform="translate(282.834661, 285.603652) rotate(30.000000) translate(-282.834661, -285.603652) translate(182.603652, 157.603652)" fill-rule="nonzero">
                <path d="M54.2638802,0.00283146685 C52.9693385,0.0430055022 51.5751658,0.521222784 49.9941066,1.76886345 C46.1215481,0.275095333 42.3658893,-0.243854605 39.0067051,2.79718587 C33.8225795,2.12448138 32.1356196,3.51280671 30.8583677,5.13326615 C29.7200427,5.10970773 22.3389049,3.96292078 18.9544179,9.01183006 C10.4482608,8.00553305 7.76026889,14.0149763 10.8060805,19.6191994 C9.06887337,22.3085594 7.26882913,24.9654838 11.3314191,30.0924397 C9.89426933,32.9479619 10.7850916,36.0456324 14.1704832,39.7944382 C13.2770563,43.8085081 15.0332285,46.6406905 18.1831761,48.8481464 C17.5940493,54.341198 23.2205271,57.5352103 24.9008041,58.6730965 C25.5459385,61.8738368 26.8905311,64.8940716 33.3173996,66.5643533 C34.3772798,71.3343744 38.2397769,72.1580911 41.9798982,73.1590297 C29.6178786,80.3446034 19.0167718,89.7991321 19.0885469,112.995346 L17.2778053,116.22562 C3.10274091,124.846463 -9.65004125,152.553572 10.2919193,175.074723 C11.5945341,182.123965 13.7791266,187.187095 15.7241442,192.79093 C18.6334325,215.37131 37.6203047,225.944621 42.6281884,227.195022 C49.9664868,232.784847 57.7823273,238.088701 68.3586038,241.803907 C78.3289139,252.086938 89.130316,256.005987 99.9906956,256 C100.149916,256 100.312079,256 100.471325,256 C111.331708,256.005987 122.133106,252.086938 132.103416,241.803907 C142.679693,238.088701 150.495533,232.784847 157.833832,227.195022 C162.841715,225.944621 181.828589,215.37131 184.737876,192.79093 C186.682893,187.187095 188.867483,182.123965 190.170101,175.074723 C210.112059,152.553572 197.359276,124.846463 183.184215,116.22562 L181.373473,112.995346 C181.445248,89.7991321 170.844142,80.3446034 158.482122,73.1590297 C162.222243,72.1580911 166.08474,71.3343744 167.144621,66.5643533 C173.571489,64.8940716 174.916084,61.8738368 175.561216,58.6730965 C177.241495,57.5352103 182.867971,54.341198 182.278844,48.8481464 C185.428794,46.6406905 187.184965,43.8085081 186.291537,39.7944382 C189.676932,36.0456324 190.567749,32.9479615 189.130601,30.0924397 C193.19319,24.9654838 191.393146,22.3085594 189.65594,19.6191994 C192.701752,14.0149763 190.01376,8.00553305 181.507602,9.01183006 C178.123116,3.96292078 170.741979,5.10970773 169.603652,5.13326615 C168.326401,3.51280671 166.639441,2.12448131 161.455315,2.79718587 C158.096131,-0.243854562 154.340472,0.275095476 150.467914,1.76886345 C145.868469,-1.86063651 142.82354,1.04875304 139.346383,2.14889565 C133.775969,0.329112627 132.502935,2.82165379 129.767336,3.83668571 C123.695673,2.55331207 121.849933,5.3473475 118.936418,8.29647533 L115.549661,8.22941083 C106.38935,13.6278764 101.838536,24.6201552 100.225421,30.2712784 C98.6115596,24.6192682 94.0710565,13.6269261 84.9123592,8.22941083 L81.5256017,8.29647533 C78.6120871,5.3473475 76.7663467,2.55331196 70.694684,3.83668571 C67.9590853,2.82165397 66.6860508,0.329112949 61.1156371,2.14889565 C58.8337521,1.42692707 56.7352805,-0.0738644318 54.2638802,0.00283146685 Z" id="Path" fill="#000000"></path>
                <path d="M36.0283579,23.7523698 C60.3317014,36.2822932 74.4596782,46.4180149 82.1999165,55.0507369 C78.2360108,70.9379034 57.557241,71.6629333 49.9962241,71.2172458 C51.5444019,70.4966189 52.8361394,69.6335291 53.2941918,68.3072758 C51.3968958,66.9589001 44.6695569,68.1652099 39.9729884,65.5266347 C41.7771381,65.1528655 42.6210456,64.7887392 43.4649532,63.4573209 C39.0277115,62.0420989 34.2481011,60.8225193 31.4370696,58.4780371 C32.9540698,58.4967794 34.3704375,58.8174014 36.3516875,57.4433803 C32.3772861,55.3015402 28.1361575,53.6042467 24.8411328,50.3301146 C26.8960654,50.2798144 29.1116045,50.3097985 29.7557525,49.5541228 C26.1180163,47.3005122 23.0488577,44.794199 20.5085078,42.0528595 C23.3842263,42.3999926 24.5986501,42.1010673 25.2937953,41.6001974 C22.5440451,38.7837778 19.0639287,36.4055811 17.4045375,32.9349482 C19.5397305,33.6708636 21.4932365,33.9525617 22.9011516,32.8702819 C21.9667677,30.7623272 17.9632678,29.5189816 15.6585544,24.5930282 C17.9063274,24.8109886 20.2903354,25.0834425 20.7671719,24.5930282 C19.7219285,20.3407584 17.9317,17.950951 16.1758829,15.4751158 C20.9866588,15.4036773 28.2753055,15.4938392 27.9451031,15.0871196 L24.970465,12.0478152 C29.6694932,10.7826242 34.4777622,12.2510346 37.9683391,13.3411361 C39.5356313,12.1044019 37.9405834,10.5405295 36.0283579,8.94384525 C40.0218114,9.47701558 43.6303682,10.3950814 46.8922534,11.6598189 C48.6349935,10.0862786 45.7606016,8.51273815 44.3702775,6.93919776 C50.5399831,8.10972125 53.1538177,9.75436183 55.7515032,11.4011549 C57.6362304,9.59459844 55.8594002,8.05926835 54.5875138,6.48653523 C59.239344,8.20948426 61.6354675,10.433702 64.1580873,12.6298096 C65.0133618,11.4755657 66.3309558,10.6295318 64.740082,7.84452244 C68.042932,9.74834069 70.5306139,11.9918129 72.3706779,14.5051249 C74.4142174,13.2039157 73.5881651,11.4244415 73.5993318,9.78450366 C77.0318363,12.5767177 79.2101701,15.5480988 81.8765869,18.4497539 C82.4137074,18.0586563 82.8840246,16.7322909 83.2992379,14.6344571 C91.4884006,22.5791205 103.059449,42.5898906 86.273876,50.5241117 C71.9958356,38.7396583 54.9355696,30.1767296 36.0283579,23.7523698 Z" id="Path" fill="#75A928"></path>
                <path d="M164.982862,23.7523698 C140.679518,36.2822932 126.551541,46.4180149 118.811303,55.0507369 C122.775209,70.9379034 143.453978,71.6629333 151.014995,71.2172458 C149.466817,70.4966189 148.17508,69.6335291 147.717028,68.3072758 C149.614324,66.9589001 156.341663,68.1652099 161.038231,65.5266347 C159.234081,65.1528655 158.390174,64.7887392 157.546266,63.4573209 C161.983508,62.0420989 166.763118,60.8225193 169.574151,58.4780371 C168.057149,58.4967794 166.640782,58.8174014 164.659532,57.4433803 C168.633932,55.3015402 172.875063,53.6042467 176.170087,50.3301146 C174.115155,50.2798144 171.899616,50.3097985 171.255467,49.5541228 C174.893203,47.3005122 177.962361,44.794199 180.502711,42.0528595 C177.626992,42.3999926 176.41257,42.1010673 175.717424,41.6001974 C178.467173,38.7837778 181.947291,36.4055811 183.606682,32.9349482 C181.471488,33.6708636 179.517983,33.9525617 178.110068,32.8702819 C179.044453,30.7623272 183.047951,29.5189816 185.352666,24.5930282 C183.104893,24.8109886 180.720884,25.0834425 180.244046,24.5930282 C181.28929,20.3407584 183.079519,17.950951 184.835336,15.4751158 C180.024561,15.4036773 172.735915,15.4938402 173.066116,15.0871196 L176.040754,12.0478152 C171.341725,10.7826242 166.533457,12.2510346 163.04288,13.3411361 C161.475588,12.1044019 163.070636,10.5405295 164.982862,8.94384525 C160.989408,9.47701558 157.380851,10.3950814 154.118966,11.6598189 C152.376226,10.0862786 155.250618,8.51273815 156.640942,6.93919776 C150.471236,8.10972125 147.857402,9.75436183 145.259716,11.4011549 C143.374989,9.59459844 145.151819,8.05926835 146.423706,6.48653523 C141.771875,8.20948426 139.375752,10.433702 136.853132,12.6298096 C135.997858,11.4755657 134.680264,10.6295318 136.271137,7.84452244 C132.968287,9.74834069 130.480606,11.9918129 128.640542,14.5051249 C126.597002,13.2039157 127.423054,11.4244415 127.411888,9.78450366 C123.979383,12.5767177 121.801049,15.5480988 119.134633,18.4497539 C118.597512,18.0586563 118.127195,16.7322909 117.711982,14.6344571 C109.522819,22.5791205 97.9517701,42.5898906 114.737343,50.5241117 C129.015384,38.7396583 146.07565,30.1767296 164.982862,23.7523698 L164.982862,23.7523698 Z" id="Path" fill="#75A928"></path>
                <path d="M129.938161,185.531794 C129.938161,200.357501 116.904543,212.37611 100.826761,212.37611 C84.7489783,212.37611 71.7153605,200.357501 71.7153605,185.531794 C71.7153605,170.706087 84.7489783,158.687477 100.826761,158.687477 C116.904543,158.687477 129.938161,170.706087 129.938161,185.531794 Z" id="Path" fill="#BC1142"></path>
                <path d="M97.8014647,134.547573 C97.8014647,148.968144 84.0091386,160.658327 66.9954423,160.658327 C49.9817459,160.658327 36.1894198,148.968144 36.1894198,134.547573 C36.1894198,120.127001 49.9817459,108.436819 66.9954423,108.436819 C84.0091386,108.436819 97.8014647,120.127001 97.8014647,134.547573 Z" id="Path" fill="#BC1142" transform="translate(66.995442, 134.547573) rotate(-56.610902) translate(-66.995442, -134.547573) "></path>
                <path d="M164.32946,133.116863 C164.32946,147.537434 150.537134,159.227617 133.523438,159.227617 C116.509741,159.227617 102.717415,147.537434 102.717415,133.116863 C102.717415,118.696292 116.509741,107.006109 133.523438,107.006109 C150.537134,107.006109 164.32946,118.696292 164.32946,133.116863 Z" id="Path" fill="#BC1142" transform="translate(133.523438, 133.116863) scale(-1, 1) rotate(-56.610902) translate(-133.523438, -133.116863) "></path>
                <path d="M23.6950748,121.767491 C36.7196159,118.277661 28.091499,175.64676 17.4953164,170.939462 C5.83976714,161.563779 2.08547752,134.107481 23.6950748,121.767491 Z" id="Path" fill="#BC1142"></path>
                <path d="M174.194273,121.052136 C161.169731,117.562307 169.797846,174.931406 180.394031,170.224107 C192.049581,160.848425 195.80387,133.392127 174.194273,121.052136 Z" id="Path" fill="#BC1142"></path>
                <path d="M129.947187,78.3331547 C152.421794,74.5381514 171.121553,87.8911129 170.368799,112.2617 C169.629505,121.604633 121.667907,79.7241226 129.947187,78.3331547 L129.947187,78.3331547 Z" id="Path" fill="#BC1142"></path>
                <path d="M67.8501654,77.6178 C45.3755583,73.8227966 26.6757995,87.1757582 27.4285529,111.546345 C28.167847,120.889278 76.1294449,79.0087679 67.8501654,77.6178 Z" id="Path" fill="#BC1142"></path>
                <path d="M100.13397,71.9315454 C86.7201429,71.5826383 73.8463009,81.8872015 73.8154065,87.8640797 C73.7780847,95.1264538 84.4210679,102.561994 100.225421,102.750737 C116.364915,102.866342 126.663362,96.7988101 126.715577,89.3041817 C126.77436,80.8129354 112.036754,71.8003672 100.13397,71.9315454 L100.13397,71.9315454 Z" id="Path" fill="#BC1142"></path>
                <path d="M100.953069,220.854475 C112.648204,220.34403 128.340722,224.621519 128.371472,230.29572 C128.565583,235.805811 114.1396,248.254897 100.177074,248.014216 C85.7171476,248.637973 71.5381767,236.169519 71.7240151,231.847703 C71.5075988,225.511116 89.331041,220.563712 100.953069,220.854475 Z" id="Path" fill="#BC1142"></path>
                <path d="M57.7561489,187.228132 C66.082556,197.259454 69.8780709,214.883384 62.9294334,220.078483 C56.3556203,224.044353 40.3913672,222.411119 29.0444259,206.110621 C21.3919001,192.432438 22.378184,178.513441 27.751105,174.424255 C35.7861209,169.529694 48.2007445,176.140756 57.7561489,187.228132 Z" id="Path" fill="#BC1142"></path>
                <path d="M142.483535,184.047693 C133.47478,194.599766 128.458194,213.845619 135.030308,220.045345 C141.314084,224.860973 158.182478,224.187828 170.642691,206.898648 C179.690494,195.286757 176.658871,175.89437 171.490662,170.74637 C163.813446,164.808163 152.792394,172.407742 142.483535,184.047693 L142.483535,184.047693 Z" id="Path" fill="#BC1142"></path>
            </g>
            <g id="Group-2" transform="translate(384.215304, 394.215304)">
                <path d="M-11.6116524,65.3883476 L163.388348,65.3883476 C177.195466,65.3883476 188.388348,76.5812289 188.388348,90.3883476 C188.388348,104.195466 177.195466,115.388348 163.388348,115.388348 L-11.6116524,115.388348 L-11.6116524,115.388348 L-11.6116524,65.3883476 Z" id="Rectangle" fill="#744210" transform="translate(88.388348, 90.388348) rotate(45.000000) translate(-88.388348, -90.388348) "></path>
                <path d="M-1.69743879,68.3233765 L175.172619,68.3233765 C187.946933,68.3233765 198.302561,78.6790044 198.302561,91.4533188 L198.302561,91.4533188 L198.302561,91.4533188 L-4.52586591,91.4533188 L-1.69743879,68.3233765 Z" id="Rectangle" fill-opacity="0.15" fill="#000000" transform="translate(96.888348, 79.888348) rotate(45.000000) translate(-96.888348, -79.888348) "></path>
            </g>
            <path d="M275.603652,80.603652 C383.299178,80.603652 470.603652,167.908126 470.603652,275.603652 C470.603652,383.299178 383.299178,470.603652 275.603652,470.603652 C167.908126,470.603652 80.603652,383.299178 80.603652,275.603652 C80.603652,167.908126 167.908126,80.603652 275.603652,80.603652 Z M275.603652,115.603652 C187.238092,115.603652 115.603652,187.238092 115.603652,275.603652 C115.603652,363.969212 187.238092,435.603652 275.603652,435.603652 C363.969212,435.603652 435.603652,363.969212 435.603652,275.603652 C435.603652,187.238092 363.969212,115.603652 275.603652,115.603652 Z" id="Combined-Shape" fill="#744210"></path>
            <g id="Group" transform="translate(275.603652, 275.603652) rotate(47.000000) translate(-275.603652, -275.603652) translate(80.603652, 80.603652)">
                <mask id="mask-2" fill="white">
                    <use xlink:href="#path-1"></use>
                </mask>
                <g id="Rectangle"></g>
                <path d="M390,195 C390,87.3044738 302.695526,0 195,0 C87.3044738,0 0,87.3044738 0,195 C0,195 390,195 390,195 Z" id="Oval" fill-opacity="0.15" fill="#000000" mask="url(#mask-2)"></path>
            </g>
        </g>
    </g>
</svg>
